/* XPM */
static char *penseur_drole_de_rod[] = {
/* columns rows colors chars-per-pixel */
"80 80 109 2",
"   c #010100",
".  c #090501",
"X  c #0C0904",
"o  c #0D0C0A",
"O  c #130F07",
"+  c #120E09",
"@  c #15130D",
"#  c #18140F",
"$  c #151412",
"%  c #1A1712",
"&  c #1D1A14",
"*  c #1E1C19",
"=  c #201C17",
"-  c #211E1A",
";  c #24221D",
":  c #29251F",
">  c #262421",
",  c #292621",
"<  c #2D2A26",
"1  c #2E2D2A",
"2  c #302C27",
"3  c #312E29",
"4  c #35322D",
"5  c #38352F",
"6  c #363531",
"7  c #393632",
"8  c #3B3935",
"9  c #3D3B39",
"0  c #403C35",
"q  c #413E3A",
"w  c #43413E",
"e  c #454441",
"r  c #494743",
"t  c #4B4945",
"y  c #4E4C49",
"u  c #514E4A",
"i  c #53514D",
"p  c #555451",
"a  c #585653",
"s  c #5C5956",
"d  c #5D5C5A",
"f  c #615E5A",
"g  c #63615E",
"h  c #666562",
"j  c #696663",
"k  c #6C6A66",
"l  c #6D6C69",
"z  c #716F6B",
"x  c #72716E",
"c  c #757472",
"v  c #797773",
"b  c #7B7976",
"n  c #7C7B79",
"m  c #807F7C",
"M  c #82817E",
"N  c #858482",
"B  c #898784",
"V  c #8A8986",
"C  c #8D8C8A",
"Z  c #908E8C",
"A  c #92918E",
"S  c #959392",
"D  c #989795",
"F  c #9A9996",
"G  c #9D9D9B",
"H  c #A09E9D",
"J  c #A2A09E",
"K  c #A4A3A2",
"L  c #A9A7A5",
"P  c #A9A9A6",
"I  c #ADACAB",
"U  c #B0AFAD",
"Y  c #B1B1AF",
"T  c #B4B4B3",
"R  c #B9B7B7",
"E  c #B9B9B7",
"W  c #B9B7B8",
"Q  c #BCBCBB",
"!  c #C0BFBC",
"~  c #C1C1BF",
"^  c #C4C4C3",
"/  c #C8C7C7",
"(  c #C9C9C7",
")  c #CCCBCB",
"_  c #D0CFCD",
"`  c #D0D0CF",
"'  c #CFCFD0",
"]  c #D4D4D3",
"[  c #D8D7D7",
"{  c #D7D8D6",
"}  c #D9D8D7",
"|  c #DCDCDC",
" . c #E1E0DF",
".. c #DFDFE0",
"X. c #DFE0E1",
"o. c #E4E3E3",
"O. c #E7E8E7",
"+. c #E9E9E7",
"@. c #EBEBEB",
"#. c #F0F0EF",
"$. c #F4F4F4",
"%. c #F8F7F7",
"&. c #F6F8F7",
"*. c #F8F8F7",
"=. c #F7F7F8",
"-. c #F8F7F8",
";. c #F7F9F8",
":. c #FAFAFA",
">. c None",
/* pixels */
">.>.>.>.>.>.>.>.>.>.>.>.>.>.>.>.>.>.>.>.>.>.>.>.>.>.>.>.>.>.>.>.>.Y { :.$.$.:.*.=.=.=.#.] / Q >.>.>.>.>.>.>.>.>.>.>.>.>.>.>.>.>.>.>.>.>.>.>.>.>.>.>.>.>.>.>.>.>.",
">.>.>.>.>.>.>.>.>.>.>.>.>.>.>.>.>.>.>.>.>.>.>.>.>.>.>.>.>.) | $.:.:.:.*.:.:.*.:.=.:.:.:.:.:.:.:.$.o.) >.>.>.>.>.>.>.>.>.>.>.>.>.>.>.>.>.>.>.>.>.>.>.>.>.>.>.>.>.",
">.>.>.>.>.>.>.>.>.>.>.>.>.>.>.>.>.>.>.>.>.>.>.>.>.>.O.$.:.:.:.:.:.:.:.*.:.-.:.:.:.:.=.:.:.:.:.:.:.:.:.:.$.{ >.>.>.>.>.>.>.>.>.>.>.>.>.>.>.>.>.>.>.>.>.>.>.>.>.>.",
">.>.>.>.>.>.>.>.>.>.>.>.>.>.>.>.>.>.>.>.>.>.>.) o.:.:.:.:.:.:.-.:.:.:.:.*.:.:.*.:.*.:.:.:.:.:.:.:.:.:.:.:.:.:.:.^ >.>.>.>.>.>.>.>.>.>.>.>.>.>.>.>.>.>.>.>.>.>.>.",
">.>.>.>.>.>.>.>.>.>.>.>.>.>.>.>.>.>.>.>.>.^ $.:.:.:.:.*.:.*.:.=.=.:.:.=.:.:.=.:.=.:.:.*.=.:.:.*.:.:.:.:.*.=.:.:.:.$.^ >.>.>.>.>.>.>.>.>.>.>.>.>.>.>.>.>.>.>.>.>.",
">.>.>.>.>.>.>.>.>.>.>.>.>.>.>.>.>.>.>.>.| :.:.=.:.:.:.*.:.:.*.:.:.:.*.:.=.:.:.*.:.*.=.:.:.:.-.:.:.:.:.*.*.:.=.:.:.:.:.@.>.>.>.>.>.>.>.>.>.>.>.>.>.>.>.>.>.>.>.>.",
">.>.>.>.>.>.>.>.>.>.>.>.>.>.>.>.>.>.{ :.:.:.=.*.:.:.:.:.=.:.:.*.*.:.*.:.:.=.:.=.=.:.:.=.*.:.:.=.*.*.:.:.:.:.:.*.:.*.:.:.:.| >.>.>.>.>.>.>.>.>.>.>.>.>.>.>.>.>.>.",
">.>.>.>.>.>.>.>.>.>.>.>.>.>.>.>.>.@.:.:.*.:.:.=.:.*.*.:.:.*.=.:.:.=.:.=.:.:.*.:.:.:.*.:.:.=.:.*.:.:.*.:.:.*.=.:.:.:.:.:.:.:.#.) >.>.>.>.>.>.>.>.>.>.>.>.>.>.>.>.",
">.>.>.>.>.>.>.>.>.>.>.>.>.>.>.^ :.:.:.:.:.*.:.:.:.*.:.:.:.:.=.:.:.*.:.:.:.:.*.=.:.=.:.:.:.*.:.:.=.:.=.:.:.:.:.*.*.:.:.=.:.:.:.:.^ >.>.>.>.>.>.>.>.>.>.>.>.>.>.>.",
">.>.>.>.>.>.>.>.>.>.>.>.>.>.) :.:.=.:.:.:.:.*.:.=.:.=.*.=.*.:.:.=.:.:.=.*.:.:.:.*.:.:.=.:.*.:.=.:.*.:.:.*.*.:.:.*.:.:.*.*.:.:.:.:.@.>.>.>.>.>.>.>.>.>.>.>.>.>.>.",
">.>.>.>.>.>.>.>.>.>.>.>.>.*.:.:.:.=.:.:.*.*.:.:.:.:.=.:.:.*.:.*.:.*.*.:.*.:.:.:.:.:.*.:.:.:.*.:.:.=.:.*.:.:.*.:.:.:.:.:.*.:.:.:.:.:.@.>.>.>.>.>.>.>.>.>.>.>.>.>.",
">.>.>.>.>.>.>.>.>.>.>.>.$.:.:.:.*.:.=.*.:.:.:.*.:.=.:.:.=.:.:.*.=.:.=.:.:.:.*.:.*.*.=.:.*.:.:.:.*.:.=.:.:.*.:.:.:.*.*.:.:.:.*.:.:.:.:.$.>.>.>.>.>.>.>.>.>.>.>.>.",
">.>.>.>.>.>.>.>.>.>.>.:.*.:.:.:.:.*.:.:.*.=.*.:.*.=.:.*.*.:.:.:.:.:.=.*.:.:.:.:.:.:.:.:.:.:.:.*.:.:.*.:.:.*.:.:.:.:.:.:.:.:.*.:.:.:.*.:.#.>.>.>.>.>.>.>.>.>.>.>.",
">.>.>.>.>.>.>.>.>.>.$.:.:.*.:.*.=.:.:.=.:.:.:.=.:.:.:.:.:.:.*.:.:.=.:.:.*.=.:.:.@.$.:.:.:.*.*.:.:.=.=.:.:.:.:.:.:.:.*.:.*.:.=.:.:.:.:.*.:.$.>.>.>.>.>.>.>.>.>.>.",
">.>.>.>.>.>.>.>.>./ :.:.:.:.:.*.=.:.=.:.:.=.:.:.:.:.=.:.:.*.:.*.*.=.:.=.=.:.:.k p f d I $.:.:.:.*.:.:.*.=.:.:./ ^ @.:.:.:.:.:.:.:.:.:.:.:.:.o.>.>.>.>.>.>.>.>.>.",
">.>.>.>.>.>.>.>.] :.:.=.:.*.:.:.:.*.:.:.*.:.*.:.=.=.:.*.:.*.*.:.:.:.*.:.:.:.N C | [ w & H :.:.:.:.=.:.=.:...s b K b K :.:.:.@.@.:.:.:.:.:.:.:.) >.>.>.>.>.>.>.>.",
">.>.>.>.>.>.>.>.:.:.:.:.:.:.=.:.*.:.:.=.:.:.=.:.*.:.:.*.:.:.:.:.:.:.:.*.:.) g :.:.:.I < w R :.:.:.*.:.:.*.y Z :.:.$.x b o.C n b V Q :.:.*.:.:.:.) >.>.>.>.>.>.>.",
">.>.>.>.>.>.>.$.:.=.:.:.:.*.:.:.=.:.:.=.*.:.:.*.:.:.*.:.:.:.:.:.:.:.:.:.:.l % z :.:.:.S   d :.:.=.:.:.:.I g :.:.:.:.:.P ^ Q $.#.E M C =.:.*.:.:.$.>.>.>.>.>.>.>.",
">.>.>.>.>.>.{ :.:.*.*.:.:.:.*.*.:.:.=.:.:.=.:.=.:.*.:.:.$.Q ~ ^ ] | ] ^ E i   3 Q | :.K % p $.:.:.:.*.:.A s :.:.:.*.:.:.:.:.:.:.:.:.K b :.:.:.*.:.| >.>.>.>.>.>.",
">.>.>.>.>.>.:.:.=.:.:.=.*.:.:.:.*.:.:.*.:.:.*.:.:.:.:.^ N N j M T b n R n s g m Z b J K 3 l :.:.:.:.:.:.$.^ :.:.*.:.:.:.:.*.:.:.:.:.:.n N :.:.:.:.:.R >.>.>.>.>.",
">.>.>.>.>.@.:.:.:.*.:.:.:.:.=.:.=.:.:.=.=.:.:.=.:.:.p f K S :.$.b T :.:.c C b K $.$.A u ; J :.*.*.:.:.:.$.[ :.:.:.*.:.:.:.:.*.:.:.*.:.O.C :.:.:.:.:.$.>.>.>.>.>.",
">.>.>.>.^ :.:.:.=.:.=.:.=.*.:.:.:.:.*.:.:.*.:.=.:.T o K :.z o. .u o.:.C l G a o.^ d B t l  .| :.:.*.:.O.p Z :.:.:.:.=.=.:.:.*.:.*.:.:.:.:.T E :.:.:.:.] >.>.>.>.",
">.>.>.>.$.:.*.:.*.:.*.:.:.*.:.=.*.:.*.:.:.:.:.:.:.C ( :.:.$.Y s k ) :.j H K   7 l ~ J - @.@.E *.:.:.:.b G :.:.:.=.:.*.:.:.:.:.*.*.:.:.:.:.^ g ~ :.:.:.$.>.>.>.>.",
">.>.>.) :.:.:.:.:.=.:.=.:.:.*.:.:.=.:.:.*.:.:.:.@.f t $.:.:.| 1 E P x c n E 6 - I -.d I :.| ..:.:.:.:.j } :.:.:.:.*.:.:.*.*.:.:.:.:.*.:.*.:.*.c o.:.:.:.{ >.>.>.",
">.>.>.o.:.:.:.:.:.*.:.:.=.:.*.=.:.*.:.:.:.:.*.:.{ 4   ^ :.:.S a h a z B   3 x B I S q *.:.K N ' :.:.:.s R :.=.:.=.:.:.*.:.:.=.:.*.:.:.*.:.=.:.I I :.:.:.O.>.>.>.",
">.>.>.:.:.*.:.:.*.:.:.*.:.:.:.:.=.:.:.=.*.:.:.:.P c   h :.^ x n 4   F z P N f A l q J ) :.$.' E :.:.:.K 9 :.:.=.=.:.=.:.=.:.:.*.:.=.=.:.=.:.:.{ K :.:.:.:.^ >.>.",
">.>.| :.=.:.:.*.*.:.:.*.:.*.=.:.:.=.*.:.*.:.:.$.7 z , T :.T l V q 4 s g :.:.8 3 ] C f V *.:.) V I @.:.:.C c @.:.*.:.:.:.:.*.:.=.:.:.*.:.:.:.:.Q p :.:.*.:.| >.>.",
">.>.@.:.=.:.*.:.:.=.:.:.=.:.:.*.*.:.:.=.:.:.:.R   4 s $.:.$.i w u 8 u M *.R p t @.:.s q [ :.T ~ C P :.:.o.t b :.:.:.:.*.=.:.*.:.*.:.:.:.*.:.| 9 G :.:.:.:.$.>.>.",
">.>.:.:.:.:.*.:.:.=.:.*.:.:.=.:.:.:.=.:.*.:.:.d 3 G K V :.:.M ; g < l *.:.:.K u :.] $ , $.:.:.:.R n Q ) k Q Z *.:.=.*.:.:.:.*.:.*.:.:.:.*.:.K F :.:.:.*.:.:.) >.",
">.) :.:.:.:.:.:.*.:.=.:.:.=.:.:.:.=.:.:.:.:.) f A V v q | :.) * k a d *.:.K x x D f   Z :.:.:.:.Q S H c ^  .p I :.:.:.:.:.=.=.:.:.:.*.*.:.Q O.:.:.:.:.:.:.:.[ >.",
">.| :.:.:.:.*.*.:.:.=.:.*.:.:.*.*.=.:.=.:.:.R I | c A 9 | :.o.g w : A ~ b l ) [ c X 1 $.:.:.:.:.=.$.T P :.$.) 9 E :.*.:.:.:.:.*.:.:.:.*.:.A S :.*.:.*.:.*.:.@.>.",
">.$.:.:.*.:.:.:.=.:.:.*.:.=.=.:.:.:.*.:.*.:.$.B c d J e G :.F < f , k 1 h ' R :.1 <  .:.:.:.*.*.:.:.:.:.:.:.:.k c :.*.:.:.:.:.:.:.:.*.*.:.Q c :.:.:.*.:.:.:.*.>.",
">.:.:.:.:.:.*.:.=.:.=.:.*.:.:.*.*.:.:.*.:.:.:.s j ~ g % g :.T @ u ; - X Y j I R   P :.:.*.:.:.=.:.:.:.:.*.:.:.| 9 $.:.:.:.$.| ^ Y :.:.:.:.n K :.:.:.*.:.:.:.:.T ",
"R :.:.:.=.=.:.=.:.*.:.:.:.=.:.:.:.*.:.:.:.:.$.u t M j g A :.:.p 8 g % 0 j 8 F x ; o.:.:.*.:.:.*.*.:.=.:.:.=.:.:.G t G | | 9 K ^ p l K Q n B :.:.:.:.*.:.:.:.:.' ",
"{ :.:.*.:.*.:.:.:.=.:.*.=.:.:.=.:.*.:.*.:.:.o.8 r @ x M K @.=.:.I t 8 l w S ~ l j :.:.:.:.:.:.:.:.=.:.:.:.:.:.:.:.) n N d C :.:.:.R g l K :.:.*.:.*.:.:.:.*.*.$.",
":.:.:.=.:.:.*.:.*.:.:.*.=.:.:.=.:.:.:.:.:.:.{ 9 i c ^ 6 x Q Z o.:.! A d u k l - z :.:.:.:.*.*.:.:.:.:.=.*.:.=.=.:.:.:.:.$.:.:.:.:.:.:.:.:.:.:.:.:.:.:.*.:.*.:.$.",
"$.*.:.:.=.:.*.=.:.:.*.:.:.:.=.:.*.-.:.*.:.:.R p A ^ o.U k d G a ] :.:.m s & O . N :.:.:.:.*.*.:.=.:.*.:.-.:.*.:.:.=.:.:.:.:.*.:.:.=.:.:.=.=.:.=.*.:.:.=.:.*.*.=.",
"$.:.:.*.:.:.:.:.:.=.=.:.*.:.:.*.:.:.:.:.:.:.A q l f B U G g c h & n o.:.[ ~ ] D D o.:.:.*.:.:.:.:.*.:.=.:.*.:.=.:.*.:.=.:.*.:.*.*.:.:.*.:.:.*.:.:.*.:.*.=.:.:.=.",
"=.=.=.:.:.=.:.:.=.:.:.*.:.=.=.:.:.:.-.:.:.:.C l p Y { P 9 8 i M h 9 t d o.:.:.:.) J K :.:.:.:.:.=.=.:.:.=.=.:.:.*.:.=.:.:.:.:.*.:.=.*.:.:.*.*.:.:.*.:.:.:.:.:.=.",
"=.:.:.*.*.:.=.*.:.:.=.:.:.*.:.:.=.=.:.*.:.+.d o.:.:.:.:.:.R F ) } c i s q f D ! :.:.h S :.:.:.:.:.:.*.:.:.:.*.:.=.:.:.:.*.*.:.:.:.=.:.=.:.:.:.=.=.:.:.=.:.=.:.=.",
":.*.:.*.:.:.:.*.=.:.*.:.:.=.:.=.:.*.*.*.:.] e :.:.:.:.o.) ` o.E R [ ) :.) b y ; R C ) - w } ..:.:.:.*.:.*.:.:.*.:.*.:.:.=.:.=.:.=.:.*.=.:.*.:.:.:.*.:.:.:.*.:.=.",
"@.:.:.*.:.*.*.:.:.:.:.=.*.:.*.:.:.:.:.:.:.| T *.:.C 1 @     X .   j ! ` $.:.*.) + c P t % e Z B O.:.*.:.:.=.:.:.=.:.*.:.:.*.:.*.:.:.:.:.:.:.*.:.:.:.=.*.:.:.:.$.",
"..:.:.:.=.:.:.:.:.*.=.:.:.:.*.=.=.:.=.:.:.$.F T J ^ l i w 9 3 5 6 - 4 8 l o.] J r n g j M , P R k | :.:.=.:.:.=.:.:.*.=.=.:.:.=.:.=.:.:.=.:.=.=.=.:.=.:.*.:.:.=.",
"o.:.:.:.:.*.:.=.=.:.:.*.:.=.:.:.:.*.=.:.:.:.Y s ^ :.:.:.:.:.:.:.$.] T | $.:.N   t K p i b 8 d :.b y :.:.=.:.:.*.:.=.:.:.:.:.*.:.*.:.=.*.:.*.:.:.:.*.:.:.*.:.*.$.",
"{ :.:.:.:.*.:.:.:.*.:.:.*.:.:.:.*.:.:.:.:.| G K K P Y Q [ o.| x p p 5 k :.@.1 @ w  .x : j i N :.f e :.:.:.:.=.:.:.:.=.:.*.:.:.=.:.=.:.:.*.=.*.:.=.=.:.*.:.*.:.$.",
"^ :.:.:.=.:.:.=.-.:.:.=.:.:.*.:.:.=.F 9 M K   l H M F S K A p C g < T $./ ; & O r m g l s 8 B :.9 P :.*.*.:.:.=.=.*.:.:.:.=.*.:.*.:.:.=.:.:.:.=.:.:.:.:.:.:.:.$.",
"Q :.:.:.:.*.*.:.*.:.:.:.*.:.:.:.:.a     c L # & = & Q I r 1 c :.D ) :.N   X = j | g E :.^ ^ Q h p :.:.:.:.=.=.:.:.*.:.*.=.:.:.:.:.=.=.:.:.=.:.:.:.:.=.:.*.:.:.>.",
">.*.:.:.:.:.=.:.:.:.*.*.:.*.:.:.U X 4 # I C @ 6 4 % R h   1 :.c G :.T - a s Y :./ E #.:.:.:.Q 8 @.:.:.:.:.*.:.:.=.:.=.:.:.*.:.=.:.*.:.:.*.:.*.:.=.=.:.*.:.:.*.>.",
">.@.:.:.:.:.*.=.:.*.:.-.:.*.:.O.; ; 5 = Q j & 5 : 9  .y   K ) 8 *.:.G 8 Q @.:.E n :.:.:.I * s :.:.*.:.:.=.:.*.=.:.*.:.:.=.:.=.:.*.:.:.*.:.:.=.:.*.=.:.*.:.:.=.>.",
">.o.:.*.=.:.:.:.=.:.*.:.:.=.:.K X 4 < 5 Y w , 5 & j ( ; X S v c :.:.8 e $.:.:.n @.:.:.| $   V :.:.*.:.*.:.:.:.:.:.:.*.:.:.*.:.*.:.=.=.:.:.=.:.:.:.:.=.:.:.:.$.>.",
">.{ :.:.*.:.:.:.:.:.*.=.*.*.:.I @ 4 2 7 U 7 < 5 X D J + X P T R :.H   @.:.:.a ) :.:.@.1   C :.:.*.:.:.*.:.=.:.:.=.:.=.=.=.:.:.=.:.:.:.=.*.:.:.*.:.:.:.:.:.:.@.>.",
">.>.:.:.:.:.*.*.:.=.:.:.:.:.:.J + 4 5 @ I A # 5 = Q a   r :.P $.:.G ; ) :.b < :.:.Y .   F :.:.*.:.*.:.:.*.:.=.*.:.*.:.:.:.:.*.:.=.:.*.:.:.=.=.:.=.*.:.=.:.*.>.>.",
">.>.@.:.*.:.:.:.:.:.:.*.:.:.:.S + 4 5 @ V Y $ @ l ( X + O.] F :.@.x B N |   ) :.~ P 6 R :.:.:.:.:.-.:.*.:.:.=.:.:.:.=.:.*.:.:.=.:.:.=.:.:.:.*.:.:.*.*.:.:.=.>.>.",
">.>.] :.:.*.*.:.*.*.:.:.*.:.:.k @ 5 8   L I + @ ` c   ~ :.x @.:.d ; X.Q - q :.~   z :.:.:.=.:.:.*.:.=.:.:.=.:.:.=.*.:.:.:.=.*.:.=.:.:.*.=.=.:.=.=.:.:.:.:.@.>.>.",
">.>.>.*.:.:.:.:.:.:.:.*.*.:.$., : 5 & l } r . k  .. B :.F | :.J X ] o.6   ) :.+ > ^ :.:.=.:.=.:.:.:.*.:.*.:.:.*.:.*.:.=.:.:.:.:.:.*.*.:.:.*.:.:.:.:.=.:.:.>.>.>.",
">.>.>.O.:.:.:.*.:.*.:.:.:.@.d & 5 : 4 :.i X % ) n   @.{ d C { K M H @ @ U :.m   +.:.:.:.:.*.:.:.:.=.:.=.:.=.=.:.=.:.*.:.=.*.:.=.=.:.:.=.:.:.*.:.*.:.:.:.=.>.>.>.",
">.>.>.^ :.:.:.:.:.=.:.*.:.H   7 4 % c | & & d ) * O N :.; w #.x x K   s P | z Q :.:.:.*.:.:.:.*.:.=.:.=.:.:.*.:.:.:.*.:.=.=.:.*.=.:.=.:.:.=.:.*.:.:.:.:.>.>.>.>.",
">.>.>.>.@.:.*.:.*.:.:.:.:.n + 7 5 O A ! @ $ N P + 4 $ C ] U o.. 7 :.T ^ @.P V :.:.*.:.:.:.*.=.:.:.:.*.:.=.=.:.=.:.=.:.=.:.:.:.:.:.:.:.*.*.:.=.:.:.:.:.$.>.>.>.>.",
">.>.>.>.>.:.:.:.:.*.=.:.| ; < 4 5 + Y H @ % n Y @ 5 4   F ) g 3   R :.B ] M F :.=.:.*.:.:.:.=.:.=.:.*.:.:.*.:.:.*.=.:.:.:.=.=.:.:.*.*.:.:.:.*.:.*.:.:.>.>.>.>.>.",
">.>.>.>.>.| :.:.:.=.:.=.9 # 7 4 < : #.h & % x ` ; 3 7 ; d R K x 6 p @.^ K Y P :.*.:.:.:.*.:.:.*.:.*.:.=.:.:.*.:.:.:.*.:.*.:.:.*.=.:.:.=.:.=.:.=.:.:.=.>.>.>.>.>.",
">.>.>.>.>.>.:.:.*.:.:.m   7 4 5 + n E @ 5 % g o.4 < 7 & M ] K I B w B X.R o.g Q :.:.:.*.:.:.=.:.:.*.:.:.*.:.=.=.:.*.:.:.:.:.=.:.:.*.:.:.*.:.:.:.:.:.>.>.>.>.>.>.",
">.>.>.>.>.>.] :.:.:.:.3 ; 4 4 4 ; T w = 7 % k ] ; 3 7 & V I H N S G d B K a h @.:.:.:.:.=.*.:.:.=.:.:.=.:.=.:.:.=.:.=.*.=.:.:.*.=.:.=.:.:.:.:.:.:.@.>.>.>.>.>.>.",
">.>.>.>.>.>.>.O.:.] 8 = 5 4 4 # x G + 7 5 $ n T @ 4 5 $ L s A ] m P b K S y q ` :.:.*.:.:.*.:.=.:.=.*.:.:.:.:.:.:.:.=.:.:.=.:.=.*.:.:.:.:.*.*.:.:.>.>.>.>.>.>.>.",
">.>.>.>.>.>.>.>.:.p   8 4 4 5 = G i ; 5 7 @ V F @ 5 7 $ G c o I ) I K Q n F t e :.:.:.=.:.:.*.:.*.:.:.=.*.:.=.*.:.=.:.:.*.:.:.*.:.:.*.*.:.:.:.:.>.>.>.>.>.>.>.>.",
">.>.>.>.>.>.>.>.I - + % $ # X q A % ; = ; X c b . O ;   z m   X e @ x < , v @ 2 | :.:.:.=.:.*.=.:.*.:.:.=.:.=.:.:.=.:.=.:.:.=.:.*.:.:.*.:.:.:.>.>.>.>.>.>.>.>.>.",
">.>.>.>.>.>.>.>.>.e d j k z e T A   w w q & l f 3 b r r S B 6 q 3 q G B v < 7 $ M :.:.:.:.:.:.:.:.:.*.:.*.:.:.*.:.*.*.:.:.=.:.:.=.:.:.:.=.:.=.>.>.>.>.>.>.>.>.>.",
">.>.>.>.>.>.>.>.>.>.*.:.:.:.:.:.| Q *.:.*.O.@.| @.:.:.:.:.=.:.*.:.:.:.:.:.:.$.@.$.:.:.:.:.=.:.:.=.:.*.=.=.:.:.=.=.:.:.=.*.=.:.=.:.:.=.:.:.$.>.>.>.>.>.>.>.>.>.>.",
">.>.>.>.>.>.>.>.>.>.>.o.:.:.:.:.:.:.:.:.:.:.:.:.:.:.:.:.:.:.:.:.:.:.:.:.:.:.:.:.:.*.*.:.*.:.=.*.:.=.:.:.:.:.*.:.:.:.*.:.:.:.*.:.*.:.:.:.$.>.>.>.>.>.>.>.>.>.>.>.",
">.>.>.>.>.>.>.>.>.>.>.>.o.:.:.:.:.*.:.*.*.:.:.=.=.:.=.:.:.:.*.:.*.:.:.=.:.*.*.=.:.:.:.*.:.:.=.:.:.:.=.:.*.:.:.=.=.:.*.:.:.:.:.*.:.:.:.=.>.>.>.>.>.>.>.>.>.>.>.>.",
">.>.>.>.>.>.>.>.>.>.>.>.>.o.:.:.*.:.:.*.*.:.*.:.:.*.:.:.:.:.*.:.:.=.=.:.:.:.:.=.*.:.:.*.:.=.:.:.=.*.:.:.:.=.*.:.:.:.:.=.*.*.:.:.:.:.#.>.>.>.>.>.>.>.>.>.>.>.>.>.",
">.>.>.>.>.>.>.>.>.>.>.>.>.>.] :.:.:.:.:.:.:.:.*.:.=.:.*.:.*.:.:.:.:.:.:.=.:.:.:.:.:.:.:.*.:.:.*.:.*.:.*.:.:.:.:.:.*.:.:.:.:.*.:.*.*.>.>.>.>.>.>.>.>.>.>.>.>.>.>.",
">.>.>.>.>.>.>.>.>.>.>.>.>.>.>.I :.:.:.:.:.*.=.:.*.:.:.*.:.:.:.*.*.:.=.=.:.*.=.:.:.*.*.:.:.=.=.:.=.:.=.:.=.*.:.=.*.:.=.=.:.:.:.$.>.>.>.>.>.>.>.>.>.>.>.>.>.>.>.>.",
">.>.>.>.>.>.>.>.>.>.>.>.>.>.>.>.>.O.:.:.:.:.:.:.:.:.:.:.*.*.:.:.:.:.*.=.:.*.:.*.*.:.:.=.:.*.*.:.:.:.*.:.:.:.*.:.:.:.*.:.:.:.=.>.>.>.>.>.>.>.>.>.>.>.>.>.>.>.>.>.",
">.>.>.>.>.>.>.>.>.>.>.>.>.>.>.>.>.>.) *.:.:.*.:.:.=.*.:.:.:.:.*.*.:.:.:.=.:.=.:.:.=.:.:.:.:.:.:.:.=.=.:.*.:.:.*.*.:.:.:.:.@.>.>.>.>.>.>.>.>.>.>.>.>.>.>.>.>.>.>.",
">.>.>.>.>.>.>.>.>.>.>.>.>.>.>.>.>.>.>.>.| :.:.:.=.:.:.:.:.*.=.:.*.:.:.:.:.:.*.:.:.=.:.*.*.:.:.*.*.:.:.*.:.:.:.:.:.*.:.=.>.>.>.>.>.>.>.>.>.>.>.>.>.>.>.>.>.>.>.>.",
">.>.>.>.>.>.>.>.>.>.>.>.>.>.>.>.>.>.>.>.>.>.| :.:.:.*.:.:.:.=.:.:.:.*.*.:.=.:.*.*.:.:.*.:.:.:.:.:.=.:.:.*.:.:.:.*.$.>.>.>.>.>.>.>.>.>.>.>.>.>.>.>.>.>.>.>.>.>.>.",
">.>.>.>.>.>.>.>.>.>.>.>.>.>.>.>.>.>.>.>.>.>.>.>.{ $.:.:.:.:.:.:.:.:.:.:.:.:.:.:.:.:.*.:.:.:.:.:.=.=.:.:.:.:.:.*.>.>.>.>.>.>.>.>.>.>.>.>.>.>.>.>.>.>.>.>.>.>.>.>.",
">.>.>.>.>.>.>.>.>.>.>.>.>.>.>.>.>.>.>.>.>.>.>.>.>.>.) o.=.:.:.:.:.:.:.:.*.*.:.:.:.=.:.=.:.:.:.:.:.:.:.=.O.) >.>.>.>.>.>.>.>.>.>.>.>.>.>.>.>.>.>.>.>.>.>.>.>.>.>.",
">.>.>.>.>.>.>.>.>.>.>.>.>.>.>.>.>.>.>.>.>.>.>.>.>.>.>.>.>.Q | O.$.:.:.:.:.:.:.:.:.:.:.:.:.:.:.$.@.| E >.>.>.>.>.>.>.>.>.>.>.>.>.>.>.>.>.>.>.>.>.>.>.>.>.>.>.>.>.",
">.>.>.>.>.>.>.>.>.>.>.>.>.>.>.>.>.>.>.>.>.>.>.>.>.>.>.>.>.>.>.>.>.>.E ) ) o.o.o.O.o...] ) Q E >.>.>.>.>.>.>.>.>.>.>.>.>.>.>.>.>.>.>.>.>.>.>.>.>.>.>.>.>.>.>.>.>."
};
